# xmcd CD database file
#
# Track frame offsets:
#	150
#	26176
#	44999
#	59596
#	84733
#	101119
#	128074
#	147107
#	181027
#	201244
#	211591
#
# Disc length: 3177 seconds
#
# Revision: 0
# Processed by: cddbd v1.5.2PL0 Copyright (c) Steve Scherf et al.
# Submitted via: NeoAudio 9.9.9
#
DISCID=a40c670b
DTITLE=Buck Clayton - and Friends
DYEAR=1900
DGENRE=Jazz
TTITLE0=Groovy Sunday
TTITLE1=I can't think
TTITLE2=Juggi buggi
TTITLE3=Georgia on my mind
TTITLE4=Boo boo
TTITLE5=Just you, just me
TTITLE6=One for Bonnie
TTITLE7=Blue boy
TTITLE8=Pat's party
TTITLE9=Rosetta
TTITLE10=These foolish things
EXTD=
EXTT0=
EXTT1=
EXTT2=
EXTT3=
EXTT4=
EXTT5=
EXTT6=
EXTT7=
EXTT8=
EXTT9=
EXTT10=
PLAYORDER=
